<svg width="301" height="48" viewBox="0 0 301 48" fill="none" xmlns="http://www.w3.org/2000/svg">
<path d="M20.5312 8.25C18.8229 7.08333 16.8958 6.5 14.75 6.5C12.625 6.5 10.8854 7.0625 9.53125 8.1875C8.17708 9.29167 7.5 10.8542 7.5 12.875C7.5 14.875 8.51042 16.6458 10.5312 18.1875C11.7396 19.125 14.2083 20.3958 17.9375 22C21.6667 23.6042 24.2604 25.0833 25.7188 26.4375C28.5104 29.0208 29.9062 31.7083 29.9062 34.5V35.625C29.9062 39.0833 28.5312 41.8958 25.7812 44.0625C24.5104 45.0625 22.9271 45.8646 21.0312 46.4688C19.1354 47.0521 17.2396 47.3438 15.3438 47.3438H14.1875C9.89583 47.3438 6.13542 46.6979 2.90625 45.4062C1.44792 44.8229 0.71875 43.2292 0.71875 40.625V39.5312C0.71875 36.4479 1.25 34.9062 2.3125 34.9062C3.04167 34.9062 4.03125 35.8958 5.28125 37.875C6.53125 39.8542 7.96875 41.3438 9.59375 42.3438C11.2396 43.3438 13.2188 43.8438 15.5312 43.8438C17.8438 43.8438 19.7083 43.2396 21.125 42.0312C22.5417 40.8021 23.25 39.2917 23.25 37.5C23.25 35.0417 22.1042 32.9688 19.8125 31.2812C18.8333 30.5729 16.375 29.3125 12.4375 27.5C8.5 25.6667 5.77083 23.9583 4.25 22.375C2.16667 20.2083 1.125 17.5625 1.125 14.4375C1.125 11.3125 2.23958 8.71875 4.46875 6.65625C5.69792 5.51042 7.22917 4.625 9.0625 4C10.8958 3.35417 12.7708 3.03125 14.6875 3.03125H15.8438C16.6354 3.03125 17.7604 3.16667 19.2188 3.4375L20.3125 3.65625C21.6042 3.90625 22.3021 4.04167 22.4062 4.0625L23.375 4.125L24.3125 4.15625C25.1875 4.21875 25.8021 4.32292 26.1562 4.46875C27.3854 4.96875 28 6.70833 28 9.6875C28 12.6667 27.4167 14.1562 26.25 14.1562C25.6667 14.1562 24.7917 13.3229 23.625 11.6562C22.4583 9.98958 21.4271 8.85417 20.5312 8.25ZM42.4062 30.9062V32.0625C42.4062 35.6042 43.0938 38.5417 44.4688 40.875C45.1146 41.9792 45.9375 42.8542 46.9375 43.5C47.9375 44.1458 48.9479 44.4688 49.9688 44.4688H50.5938C52.4896 44.4688 54.125 43.5521 55.5 41.7188C56.8958 39.8646 57.5938 37.2396 57.5938 33.8438V31.625C57.5938 28.2708 56.8958 25.4271 55.5 23.0938C54.125 20.7396 52.375 19.5625 50.25 19.5625H49.2812C47.3646 19.5625 45.7396 20.5938 44.4062 22.6562C43.0729 24.7188 42.4062 27.4688 42.4062 30.9062ZM65.125 31.0312V32.5938C65.125 34.2396 64.7917 36.0417 64.125 38C62.7292 42.0833 59.9479 44.9375 55.7812 46.5625C53.9688 47.2708 52.2188 47.625 50.5312 47.625H49.5C45.5208 47.625 42.1979 46.2917 39.5312 43.625C38.3229 42.4167 37.3438 40.8229 36.5938 38.8438C35.8438 36.8646 35.4688 34.7604 35.4688 32.5312V32C35.4688 29.9792 35.8229 27.9375 36.5312 25.875C37.9062 21.8542 40.6042 19.0625 44.625 17.5C46.4375 16.7917 48.1771 16.4375 49.8438 16.4375H51.4062C53.2604 16.4375 55.0833 16.8542 56.875 17.6875C60.2708 19.2708 62.6354 21.7917 63.9688 25.25C64.7396 27.2917 65.125 29.2188 65.125 31.0312ZM93.5625 25.5625C92.6875 25.5625 91.4688 24.6562 89.9062 22.8438C88.3646 21.0312 86.5729 20.125 84.5312 20.125C82.5104 20.125 80.8125 21.1354 79.4375 23.1562C78.0625 25.1562 77.375 28 77.375 31.6875C77.375 35.375 78.2188 38.2604 79.9062 40.3438C81.6146 42.4062 83.8333 43.4375 86.5625 43.4375C88.0625 43.4375 89.3125 43.25 90.3125 42.875C91.3333 42.5 92.2708 42.1042 93.125 41.6875C94 41.25 94.6146 41.0312 94.9688 41.0312C95.5729 41.0312 95.875 41.4271 95.875 42.2188C95.875 43.4271 94.6562 44.625 92.2188 45.8125C89.7812 47 87.4167 47.5938 85.125 47.5938C80.6667 47.5938 77.0833 46.1979 74.375 43.4062C73.2708 42.2604 72.3438 40.7917 71.5938 39C70.8438 37.1875 70.4688 35.25 70.4688 33.1875V31.6562C70.4688 31.6146 70.4688 31.5625 70.4688 31.5C70.4688 31.4583 70.4688 31.4167 70.4688 31.375C70.4688 29.5625 70.875 27.6875 71.6875 25.75C73.2917 21.9583 75.875 19.3333 79.4375 17.875C81.5 17.0417 83.5521 16.625 85.5938 16.625H86.3125C89.125 16.625 91.5104 17.1146 93.4688 18.0938C95.0521 18.8854 95.8438 20.2083 95.8438 22.0625C95.8438 23.2917 95.5938 24.1875 95.0938 24.75C94.6146 25.2917 94.1042 25.5625 93.5625 25.5625ZM112.844 6.875C112.844 7.79167 112.448 8.64583 111.656 9.4375C110.885 10.2083 110.115 10.5938 109.344 10.5938C109.177 10.6354 109.042 10.6562 108.938 10.6562L108.25 10.7188C107.208 10.7188 106.271 10.375 105.438 9.6875C104.625 9 104.219 8.11458 104.219 7.03125V6.46875C104.219 5.38542 104.646 4.47917 105.5 3.75C106.375 3 107.375 2.625 108.5 2.625H108.656L109.719 2.75C110.365 2.75 111.031 3.10417 111.719 3.8125C112.427 4.5 112.781 5.19792 112.781 5.90625L112.844 6.1875V6.875ZM102.906 20.8125C101.823 20.2917 101.281 19.8021 101.281 19.3438C101.281 18.8854 101.5 18.5208 101.938 18.25C103.458 17.3333 105.865 16.875 109.156 16.875H110.062C111.188 16.875 111.823 17.3958 111.969 18.4375C112.052 19 112.094 22.7917 112.094 29.8125C112.094 36.8125 112.24 40.8333 112.531 41.875C112.823 42.8958 113.521 43.6875 114.625 44.25C115.729 44.7917 116.281 45.3438 116.281 45.9062C116.281 46.6979 113.698 47.0938 108.531 47.0938L107.594 47.125H103.781C102.26 47.125 101.5 46.75 101.5 46C101.5 45.375 101.958 44.7708 102.875 44.1875C103.812 43.6042 104.458 42.9583 104.812 42.25C105.208 41.4792 105.406 39.6771 105.406 36.8438L105.438 35.8438V34.875L105.469 33.4062V32.4375L105.5 31.4688C105.5 26.5312 105.333 23.6562 105 22.8438C104.688 22.0104 103.99 21.3333 102.906 20.8125ZM137.781 32.5312H137.25C134.521 32.5312 132.24 33.1458 130.406 34.375C128.594 35.5833 127.688 37.0938 127.688 38.9062V39.5312C127.688 40.5938 128.01 41.5521 128.656 42.4062C129.323 43.2396 130.177 43.6562 131.219 43.6562L131.594 43.7188H132.531C134.698 43.7188 136.469 42.8333 137.844 41.0625C138.448 40.2917 138.75 38.7083 138.75 36.3125C138.75 36.125 138.75 35.9375 138.75 35.75L138.781 35V34.25C138.781 33.1042 138.448 32.5312 137.781 32.5312ZM122.594 22.4375C122.594 20.8958 123.812 19.5208 126.25 18.3125C128.708 17.0833 131.25 16.4688 133.875 16.4688C133.958 16.4688 134.042 16.4688 134.125 16.4688C136.625 16.4688 138.625 16.7708 140.125 17.375C143.167 18.5833 144.906 21.1458 145.344 25.0625C145.385 25.4583 145.406 28.0833 145.406 32.9375C145.406 37.7708 145.531 40.6042 145.781 41.4375C146.052 42.2708 146.76 42.8854 147.906 43.2812C149.073 43.6771 149.656 44.0521 149.656 44.4062C149.656 45.1562 149.281 45.7292 148.531 46.125C147.031 46.9167 145.552 47.3125 144.094 47.3125C142.656 47.3125 141.583 46.9792 140.875 46.3125C139.604 45.125 138.927 44.5312 138.844 44.5312C138.76 44.5312 137.583 45.0625 135.312 46.125C133.042 47.1667 131.052 47.6875 129.344 47.6875C126.781 47.6875 124.771 46.9792 123.312 45.5625C121.854 44.1458 121.125 42.4271 121.125 40.4062V39.625C121.125 37.4583 122.062 35.5521 123.938 33.9062C125.812 32.2604 129.188 30.9792 134.062 30.0625C135.833 29.7292 136.948 29.4167 137.406 29.125C138.323 28.5417 138.781 27.3542 138.781 25.5625C138.781 23.7708 138.302 22.3958 137.344 21.4375C136.385 20.4792 135.104 20 133.5 20C131.896 20 130.344 20.9375 128.844 22.8125C127.365 24.6667 126.01 25.5938 124.781 25.5938C123.323 25.5938 122.594 24.5417 122.594 22.4375ZM154.5 45.9062C154.5 45.4688 154.969 44.9062 155.906 44.2188C156.865 43.5312 157.51 42.4583 157.844 41C158.177 39.5208 158.344 33.9375 158.344 24.25C158.344 14.5625 158.229 9.07292 158 7.78125C157.792 6.48958 157.26 5.5625 156.406 5C155.031 4.10417 154.344 3.55208 154.344 3.34375V2.96875C154.344 2.61458 154.646 2.30208 155.25 2.03125C157.125 1.21875 159.625 0.8125 162.75 0.8125H163.375C164.438 0.8125 165.052 1.53125 165.219 2.96875C165.24 3.15625 165.25 4.72917 165.25 7.6875V14.4062L165.219 15.6875V17.6562L165.188 18.9375C165.188 18.9375 165.188 22.2396 165.188 28.8438C165.188 35.0104 165.281 38.8333 165.469 40.3125C165.677 41.7708 166.146 42.8333 166.875 43.5C166.958 43.5625 167.396 43.8333 168.188 44.3125C168.979 44.7917 169.375 45.2812 169.375 45.7812C169.375 46.5104 168.083 46.875 165.5 46.875L164.219 46.9375H162.938L157.812 47.0312H157.156C155.385 47.0312 154.5 46.6562 154.5 45.9062ZM213.844 39.3125C213.844 42.8958 213.729 44.9896 213.5 45.5938C213.271 46.1771 212.76 46.4688 211.969 46.4688C210.26 46.4688 208.104 44.9062 205.5 41.7812L204.562 40.625C202.583 38.1042 200.656 35.4688 198.781 32.7188C196.927 29.9688 195.656 28.1042 194.969 27.125C188.552 18.1875 185.062 13.7188 184.5 13.7188C184.062 13.7188 183.844 17.375 183.844 24.6875C183.844 32 184.146 37.1667 184.75 40.1875C184.958 41.2708 185.406 42.3333 186.094 43.375C186.802 44.3958 187.156 45.0833 187.156 45.4375C187.156 46.3333 185.042 46.7812 180.812 46.7812H179.375C176.417 46.7812 174.938 46.4062 174.938 45.6562C174.938 44.9062 175.573 44.1771 176.844 43.4688C178.135 42.7396 178.948 41.7604 179.281 40.5312C179.615 39.2812 179.781 34.9062 179.781 27.4062L179.875 22.75L179.844 18.1875C179.844 13.75 179.573 10.8438 179.031 9.46875C178.781 8.82292 178.062 8.05208 176.875 7.15625C175.688 6.23958 175.094 5.69792 175.094 5.53125C175.094 4.42708 176.219 3.875 178.469 3.875C180.74 3.875 182.531 4.14583 183.844 4.6875C185.156 5.22917 186.312 5.97917 187.312 6.9375C188.333 7.89583 190.521 10.6146 193.875 15.0938C197.25 19.5521 199.583 22.6875 200.875 24.5L203.531 28.125C206.719 32.4792 208.417 34.6562 208.625 34.6562C209.292 34.6562 209.625 31.0208 209.625 23.75C209.625 16.4792 209.479 12.0938 209.188 10.5938C208.917 9.09375 208.323 7.85417 207.406 6.875C206.51 5.875 206.062 5.33333 206.062 5.25C206.062 4.22917 207.177 3.71875 209.406 3.71875H212.375C215.021 3.71875 216.771 3.91667 217.625 4.3125C218.125 4.54167 218.375 4.98958 218.375 5.65625C218.375 5.71875 217.583 6.53125 216 8.09375C215.146 8.92708 214.583 9.98958 214.312 11.2812C214.042 12.5729 213.906 17.0729 213.906 24.7812L213.844 30.875V39.3125ZM243.281 26.6875V25.7188C243.281 24.1771 242.729 22.7917 241.625 21.5625C240.521 20.3125 239.167 19.6875 237.562 19.6875H236.969C236.677 19.7292 236.479 19.75 236.375 19.75C234.917 19.75 233.531 20.5833 232.219 22.25C230.927 23.9167 230.281 25.6979 230.281 27.5938V28C230.281 28.6667 230.677 29 231.469 29C231.781 29.0625 231.948 29.0938 231.969 29.0938L232.688 29.125H232.875L233.094 29.0938L239.125 28.75L240.25 28.625C242.271 28.625 243.281 27.9792 243.281 26.6875ZM230.281 34.9688C230.281 37.3438 231.177 39.3333 232.969 40.9375C234.76 42.5417 237.031 43.3438 239.781 43.3438C240.885 43.3438 241.885 43.1875 242.781 42.875C243.698 42.5417 244.688 42.1458 245.75 41.6875C246.833 41.2292 247.51 41 247.781 41C248.615 41 249.031 41.4479 249.031 42.3438C249.031 43.5521 247.49 44.8438 244.406 46.2188C242.406 47.1146 240.26 47.5625 237.969 47.5625H237.281C233.365 47.5625 230.115 46.375 227.531 44C226.135 42.7083 225.052 41.0625 224.281 39.0625C223.51 37.0417 223.125 34.875 223.125 32.5625L223.156 31.8438V31.125C223.156 29.125 223.615 27.1562 224.531 25.2188C225.469 23.2812 226.583 21.6875 227.875 20.4375C230.604 17.8125 233.844 16.4896 237.594 16.4688C243.26 16.4688 247.031 18.6771 248.906 23.0938C249.49 24.4896 249.781 25.7708 249.781 26.9375V27.5625C249.781 29 249.188 29.9688 248 30.4688C246.812 30.9479 244.01 31.3438 239.594 31.6562C235.177 31.9688 232.781 32.1771 232.406 32.2812C230.99 32.6354 230.281 33.5312 230.281 34.9688ZM297.844 17.3438C299.865 17.3438 300.875 17.9062 300.875 19.0312C300.875 19.2604 300.604 19.8021 300.062 20.6562C299.542 21.4896 298.927 22.6458 298.219 24.125C297.51 25.6042 296.198 29.1146 294.281 34.6562C292.365 40.1979 291.26 43.25 290.969 43.8125C290.01 45.625 288.688 46.5312 287 46.5312C286.229 46.5312 285.448 45.7708 284.656 44.25C283.865 42.7292 282.615 39.8021 280.906 35.4688C279.219 31.1146 278.146 28.9375 277.688 28.9375C277.625 28.9375 276.667 31.2188 274.812 35.7812C272.958 40.3229 271.854 42.9271 271.5 43.5938C270.5 45.4896 269.281 46.4375 267.844 46.4375C266.427 46.4375 264.906 44.0208 263.281 39.1875L262.5 36.75C260.271 29.5833 258.198 24.6667 256.281 22C255.115 20.375 254.531 19.3958 254.531 19.0625C254.531 18.7292 254.698 18.4167 255.031 18.125C255.74 17.5 256.99 17.1875 258.781 17.1875H259.969C262.49 17.1875 264.052 17.7292 264.656 18.8125C264.885 19.2292 265.062 20.1562 265.188 21.5938C265.333 23.0104 265.51 24.3542 265.719 25.625C265.948 26.875 266.552 29.0417 267.531 32.125C268.51 35.2083 269.438 36.75 270.312 36.75C271 36.75 271.833 35.3958 272.812 32.6875C273.792 29.9792 274.281 27.4896 274.281 25.2188C274.281 24.6771 274.167 23.9583 273.938 23.0625C273.729 22.1667 273.625 21.5521 273.625 21.2188C273.625 19.9688 274.396 19 275.938 18.3125C276.688 17.9792 277.812 17.8125 279.312 17.8125C280.833 17.8125 282.094 18.4062 283.094 19.5938C283.615 20.2188 283.875 21.1146 283.875 22.2812L283.812 23.1875L283.781 24.1875C283.781 24.7708 284.24 26.5833 285.156 29.625C286.073 32.6458 286.729 34.5729 287.125 35.4062C287.542 36.2188 287.969 36.625 288.406 36.625C289.302 36.625 290.333 34.9062 291.5 31.4688C292.688 28.0312 293.281 25.0833 293.281 22.625L293.031 19.4688C293.031 18.0521 294.635 17.3438 297.844 17.3438Z" fill="white"/>
</svg>
